<svg xmlns="http://www.w3.org/2000/svg" xmlns:xlink="http://www.w3.org/1999/xlink" version="1.1" class="marks" width="447" height="347" viewBox="0 0 447 347"><rect width="447" height="347" fill="white"/><g fill="none" stroke-miterlimit="10" transform="translate(41,10)"><g class="mark-group role-frame root" role="graphics-object" aria-roledescription="group mark container"><g transform="translate(0,0)"><path class="background" aria-hidden="true" d="M0.5,0.5h400v300h-400Z" stroke="#ddd"/><g><g class="mark-group role-axis" aria-hidden="true"><g transform="translate(0.5,300.5)"><path class="background" aria-hidden="true" d="M0,0h0v0h0Z" pointer-events="none"/><g><g class="mark-rule role-axis-grid" pointer-events="none"><line transform="translate(0,-300)" x2="0" y2="300" stroke="#ddd" stroke-width="1" opacity="1"/><line transform="translate(44,-300)" x2="0" y2="300" stroke="#ddd" stroke-width="1" opacity="1"/><line transform="translate(89,-300)" x2="0" y2="300" stroke="#ddd" stroke-width="1" opacity="1"/><line transform="translate(133,-300)" x2="0" y2="300" stroke="#ddd" stroke-width="1" opacity="1"/><line transform="translate(178,-300)" x2="0" y2="300" stroke="#ddd" stroke-width="1" opacity="1"/><line transform="translate(222,-300)" x2="0" y2="300" stroke="#ddd" stroke-width="1" opacity="1"/><line transform="translate(267,-300)" x2="0" y2="300" stroke="#ddd" stroke-width="1" opacity="1"/><line transform="translate(311,-300)" x2="0" y2="300" stroke="#ddd" stroke-width="1" opacity="1"/><line transform="translate(356,-300)" x2="0" y2="300" stroke="#ddd" stroke-width="1" opacity="1"/><line transform="translate(400,-300)" x2="0" y2="300" stroke="#ddd" stroke-width="1" opacity="1"/></g></g><path class="foreground" aria-hidden="true" d="" pointer-events="none" display="none"/></g></g><g class="mark-group role-axis" aria-hidden="true"><g transform="translate(0.5,0.5)"><path class="background" aria-hidden="true" d="M0,0h0v0h0Z" pointer-events="none"/><g><g class="mark-rule role-axis-grid" pointer-events="none"><line transform="translate(0,300)" x2="400" y2="0" stroke="#ddd" stroke-width="1" opacity="1"/><line transform="translate(0,257)" x2="400" y2="0" stroke="#ddd" stroke-width="1" opacity="1"/><line transform="translate(0,214)" x2="400" y2="0" stroke="#ddd" stroke-width="1" opacity="1"/><line transform="translate(0,171)" x2="400" y2="0" stroke="#ddd" stroke-width="1" opacity="1"/><line transform="translate(0,129)" x2="400" y2="0" stroke="#ddd" stroke-width="1" opacity="1"/><line transform="translate(0,86)" x2="400" y2="0" stroke="#ddd" stroke-width="1" opacity="1"/><line transform="translate(0,43)" x2="400" y2="0" stroke="#ddd" stroke-width="1" opacity="1"/><line transform="translate(0,0)" x2="400" y2="0" stroke="#ddd" stroke-width="1" opacity="1"/></g></g><path class="foreground" aria-hidden="true" d="" pointer-events="none" display="none"/></g></g><g class="mark-group role-axis" role="graphics-symbol" aria-roledescription="axis" aria-label="X-axis titled 'iteration' for a linear scale with values from 0 to 45,000"><g transform="translate(0.5,300.5)"><path class="background" aria-hidden="true" d="M0,0h0v0h0Z" pointer-events="none"/><g><g class="mark-rule role-axis-tick" pointer-events="none"><line transform="translate(0,0)" x2="0" y2="5" stroke="#888" stroke-width="1" opacity="1"/><line transform="translate(44,0)" x2="0" y2="5" stroke="#888" stroke-width="1" opacity="1"/><line transform="translate(89,0)" x2="0" y2="5" stroke="#888" stroke-width="1" opacity="1"/><line transform="translate(133,0)" x2="0" y2="5" stroke="#888" stroke-width="1" opacity="1"/><line transform="translate(178,0)" x2="0" y2="5" stroke="#888" stroke-width="1" opacity="1"/><line transform="translate(222,0)" x2="0" y2="5" stroke="#888" stroke-width="1" opacity="1"/><line transform="translate(267,0)" x2="0" y2="5" stroke="#888" stroke-width="1" opacity="1"/><line transform="translate(311,0)" x2="0" y2="5" stroke="#888" stroke-width="1" opacity="1"/><line transform="translate(356,0)" x2="0" y2="5" stroke="#888" stroke-width="1" opacity="1"/><line transform="translate(400,0)" x2="0" y2="5" stroke="#888" stroke-width="1" opacity="1"/></g><g class="mark-text role-axis-label" pointer-events="none"><text text-anchor="start" transform="translate(0,15)" font-family="sans-serif" font-size="10px" fill="#000" opacity="1">0</text><text text-anchor="middle" transform="translate(44.44444444444444,15)" font-family="sans-serif" font-size="10px" fill="#000" opacity="0">5,000</text><text text-anchor="middle" transform="translate(88.88888888888889,15)" font-family="sans-serif" font-size="10px" fill="#000" opacity="1">10,000</text><text text-anchor="middle" transform="translate(133.33333333333331,15)" font-family="sans-serif" font-size="10px" fill="#000" opacity="0">15,000</text><text text-anchor="middle" transform="translate(177.77777777777777,15)" font-family="sans-serif" font-size="10px" fill="#000" opacity="1">20,000</text><text text-anchor="middle" transform="translate(222.22222222222223,15)" font-family="sans-serif" font-size="10px" fill="#000" opacity="0">25,000</text><text text-anchor="middle" transform="translate(266.66666666666663,15)" font-family="sans-serif" font-size="10px" fill="#000" opacity="1">30,000</text><text text-anchor="middle" transform="translate(311.11111111111114,15)" font-family="sans-serif" font-size="10px" fill="#000" opacity="0">35,000</text><text text-anchor="middle" transform="translate(355.55555555555554,15)" font-family="sans-serif" font-size="10px" fill="#000" opacity="1">40,000</text><text text-anchor="end" transform="translate(400,15)" font-family="sans-serif" font-size="10px" fill="#000" opacity="0">45,000</text></g><g class="mark-rule role-axis-domain" pointer-events="none"><line transform="translate(0,0)" x2="400" y2="0" stroke="#888" stroke-width="1" opacity="1"/></g><g class="mark-text role-axis-title" pointer-events="none"><text text-anchor="middle" transform="translate(200,30)" font-family="sans-serif" font-size="11px" font-weight="bold" fill="#000" opacity="1">iteration</text></g></g><path class="foreground" aria-hidden="true" d="" pointer-events="none" display="none"/></g></g><g class="mark-group role-axis" role="graphics-symbol" aria-roledescription="axis" aria-label="Y-axis titled 'val_loss, train_loss' for a linear scale with values from 0.0 to 3.5"><g transform="translate(0.5,0.5)"><path class="background" aria-hidden="true" d="M0,0h0v0h0Z" pointer-events="none"/><g><g class="mark-rule role-axis-tick" pointer-events="none"><line transform="translate(0,300)" x2="-5" y2="0" stroke="#888" stroke-width="1" opacity="1"/><line transform="translate(0,257)" x2="-5" y2="0" stroke="#888" stroke-width="1" opacity="1"/><line transform="translate(0,214)" x2="-5" y2="0" stroke="#888" stroke-width="1" opacity="1"/><line transform="translate(0,171)" x2="-5" y2="0" stroke="#888" stroke-width="1" opacity="1"/><line transform="translate(0,129)" x2="-5" y2="0" stroke="#888" stroke-width="1" opacity="1"/><line transform="translate(0,86)" x2="-5" y2="0" stroke="#888" stroke-width="1" opacity="1"/><line transform="translate(0,43)" x2="-5" y2="0" stroke="#888" stroke-width="1" opacity="1"/><line transform="translate(0,0)" x2="-5" y2="0" stroke="#888" stroke-width="1" opacity="1"/></g><g class="mark-text role-axis-label" pointer-events="none"><text text-anchor="end" transform="translate(-7,303)" font-family="sans-serif" font-size="10px" fill="#000" opacity="1">0.0</text><text text-anchor="end" transform="translate(-7,260.14285714285717)" font-family="sans-serif" font-size="10px" fill="#000" opacity="1">0.5</text><text text-anchor="end" transform="translate(-7,217.28571428571428)" font-family="sans-serif" font-size="10px" fill="#000" opacity="1">1.0</text><text text-anchor="end" transform="translate(-7,174.42857142857142)" font-family="sans-serif" font-size="10px" fill="#000" opacity="1">1.5</text><text text-anchor="end" transform="translate(-7,131.57142857142858)" font-family="sans-serif" font-size="10px" fill="#000" opacity="1">2.0</text><text text-anchor="end" transform="translate(-7,88.71428571428571)" font-family="sans-serif" font-size="10px" fill="#000" opacity="1">2.5</text><text text-anchor="end" transform="translate(-7,45.85714285714287)" font-family="sans-serif" font-size="10px" fill="#000" opacity="1">3.0</text><text text-anchor="end" transform="translate(-7,3)" font-family="sans-serif" font-size="10px" fill="#000" opacity="1">3.5</text></g><g class="mark-rule role-axis-domain" pointer-events="none"><line transform="translate(0,300)" x2="0" y2="-300" stroke="#888" stroke-width="1" opacity="1"/></g><g class="mark-text role-axis-title" pointer-events="none"><text text-anchor="middle" transform="translate(-24.9013671875,150) rotate(-90) translate(0,-2)" font-family="sans-serif" font-size="11px" font-weight="bold" fill="#000" opacity="1">val_loss, train_loss</text></g></g><path class="foreground" aria-hidden="true" d="" pointer-events="none" display="none"/></g></g><g class="mark-line role-mark layer_0_marks" role="graphics-object" aria-roledescription="line mark container"><path aria-label="iteration: 0; val_loss: 3.1711435318" role="graphics-symbol" aria-roledescription="line mark" d="M0,28.188L0.889,99.7L1.778,106.213L2.667,115.036L3.556,119.196L4.444,122.466L5.333,125.965L6.222,126.861L7.111,127.034L8,128.742L8.889,130.532L9.778,131.021L10.667,131.924L11.556,133.061L12.444,134.915L13.333,134.435L14.222,137.236L15.111,138.569L16,138.263L16.889,139.383L17.778,140.45L18.667,141.21L19.556,140.732L20.444,143.024L21.333,142.243L22.222,142.957L23.111,145.417L24,146.143L24.889,146.645L25.778,148.811L26.667,148.224L27.556,148.88L28.444,148.432L29.333,150.725L30.222,150.085L31.111,150.794L32,151.185L32.889,152.127L33.778,152.606L34.667,152.181L35.556,154.387L36.444,153.853L37.333,155.679L38.222,155.559L39.111,156.504L40,156.063L40.889,157.451L41.778,156.416L42.667,157.573L43.556,158.464L44.444,158.84L45.333,159.341L46.222,159.526L47.111,160.555L48,161.433L48.889,160.96L49.778,160.291L50.667,160.646L51.556,162.155L52.444,162.428L53.333,162.346L54.222,163.239L55.111,163.663L56,164.213L56.889,164.841L57.778,164.837L58.667,165.323L59.556,166.08L60.444,165.202L61.333,165.959L62.222,166.285L63.111,166.392L64,168.77L64.889,168.192L65.778,168.711L66.667,168.488L67.556,168.386L68.444,169.002L69.333,168.933L70.222,168.837L71.111,169.939L72,169.557L72.889,170.499L73.778,171.618L74.667,170.406L75.556,173.172L76.444,170.531L77.333,171.02L78.222,169.818L79.111,172.441L80,173.086L80.889,172.207L81.778,172.282L82.667,172.709L83.556,173.689L84.444,174.049L85.333,172.458L86.222,174.684L87.111,173.446L88,175.165L88.889,174.822L89.778,174.039L90.667,174.189L91.556,175.665L92.444,176.276L93.333,174.719L94.222,175.498L95.111,175.042L96,175.303L96.889,175.736L97.778,175.887L98.667,176.654L99.556,177.916L100.444,177.463L101.333,177.33L102.222,177.325L103.111,177.431L104,178.199L104.889,178.467L105.778,178.399L106.667,177.334L107.556,180.232L108.444,178.474L109.333,179.446L110.222,178.095L111.111,180.501L112,179.472L112.889,179.001L113.778,178.867L114.667,179.982L115.556,179.29L116.444,180.344L117.333,179.959L118.222,180.304L119.111,181.636L120,181.869L120.889,180.427L121.778,179.701L122.667,181.065L123.556,181.024L124.444,182.105L125.333,180.833L126.222,183.195L127.111,182.325L128,181.188L128.889,182.196L129.778,182.824L130.667,181.386L131.556,182.056L132.444,183.453L133.333,182.356L134.222,182.927L135.111,183.894L136,183.634L136.889,183.815L137.778,183.36L138.667,182.907L139.556,182.801L140.444,182.71L141.333,183.025L142.222,184.837L143.111,183.693L144,185.26L144.889,184.718L145.778,184.096L146.667,184.447L147.556,184.737L148.444,184.604L149.333,187.162L150.222,184.457L151.111,187.129L152,185.331L152.889,184.954L153.778,186.29L154.667,185.275L155.556,185.541L156.444,186.847L157.333,185.834L158.222,187.319L159.111,187.159L160,186.322L160.889,186.331L161.778,187.447L162.667,186.936L163.556,186.768L164.444,187.305L165.333,186.182L166.222,187.164L167.111,186.903L168,188.393L168.889,187.733L169.778,188.076L170.667,188.248L171.556,187.988L172.444,188.577L173.333,187.48L174.222,187.816L175.111,189.508L176,188.864L176.889,188.887L177.778,187.777L178.667,188.208L179.556,189.254L180.444,187.372L181.333,188.521L182.222,190.01L183.111,188.45L184,190.243L184.889,190.203L185.778,190.35L186.667,188.729L187.556,188.675L188.444,189.829L189.333,190.903L190.222,189.619L191.111,189.117L192,190.333L192.889,191.32L193.778,190.867L194.667,190.976L195.556,191.347L196.444,189.915L197.333,191.632L198.222,189.498L199.111,190.209L200,190.933L200.889,192.58L201.778,190.793L202.667,190.831L203.556,192.253L204.444,190.22L205.333,192.233L206.222,191.202L207.111,191.548L208,191.09L208.889,192.15L209.778,191.481L210.667,190.613L211.556,190.415L212.444,192.809L213.333,191.444L214.222,193.535L215.111,191.268L216,192.218L216.889,192.461L217.778,192.442L218.667,192.189L219.556,192.546L220.444,192.609L221.333,192.288L222.222,193.316L223.111,193.983L224,193.556L224.889,192.3L225.778,193.687L226.667,195.344L227.556,193.364L228.444,192.815L229.333,192.702L230.222,194.895L231.111,195.109L232,193.914L232.889,193.333L233.778,194.713L234.667,194.486L235.556,192.801L236.444,194.207L237.333,194.247L238.222,194.305L239.111,193.826L240,194.473L240.889,194.709L241.778,193.209L242.667,194.526L243.556,194.881L244.444,195.539L245.333,193.245L246.222,195.783L247.111,193.464L248,194.509L248.889,195.636L249.778,194.523L250.667,195.808L251.556,194.38L252.444,195.627L253.333,195.259L254.222,195.853L255.111,196.53L256,194.867L256.889,195.701L257.778,197.356L258.667,196.399L259.556,195.382L260.444,196.503L261.333,196.016L262.222,195.748L263.111,195.852L264,195.877L264.889,196.344L265.778,195.492L266.667,197.408L267.556,197.648L268.444,195.418L269.333,196.306L270.222,196.173L271.111,195.47L272,196.889L272.889,195.61L273.778,194.645L274.667,196.633L275.556,197.38L276.444,195.943L277.333,196.622L278.222,197.128L279.111,198.564L280,197.421L280.889,196.849L281.778,197.82L282.667,197.243L283.556,197.48L284.444,197.03L285.333,196.591L286.222,197.161L287.111,198.181L288,198.68L288.889,198.804L289.778,197.768L290.667,198.93L291.556,197.418L292.444,197.963L293.333,198.009L294.222,198.528L295.111,197.945L296,198.184L296.889,198.212L297.778,198.893L298.667,197.914L299.556,198.652L300.444,198.754L301.333,198.969L302.222,198.526L303.111,197.736L304,198.62L304.889,197.831L305.778,198.362L306.667,198.628L307.556,199.407L308.444,199.834L309.333,199.259L310.222,198.748L311.111,198.415L312,197.724L312.889,198.879L313.778,198.193L314.667,199.746L315.556,200.163L316.444,201.062L317.333,199.289L318.222,197.938L319.111,198.41L320,200.525L320.889,199.576L321.778,200.176L322.667,200.015L323.556,199.658L324.444,200.294L325.333,199.964L326.222,200.092L327.111,200.555L328,199.759L328.889,200.461L329.778,201.529L330.667,200.036L331.556,200.876L332.444,200.361L333.333,200.528L334.222,201.23L335.111,200.931L336,200.748L336.889,200.347L337.778,200.328L338.667,201.272L339.556,200.508L340.444,200.515L341.333,200.697L342.222,201.293L343.111,202.204L344,200.637L344.889,201.383L345.778,199.372L346.667,201.595L347.556,200.425L348.444,201.435L349.333,201.029L350.222,201.036L351.111,202.196L352,201.072L352.889,200.74L353.778,201.29L354.667,200.886L355.556,200.606L356.444,202.851L357.333,201.836" stroke="#4c78a8" stroke-width="2"/></g><g class="mark-line role-mark layer_1_marks" role="graphics-object" aria-roledescription="line mark container"><path aria-label="iteration: 0; train_loss: 3.17463350296" role="graphics-symbol" aria-roledescription="line mark" d="M0,27.889L0.889,99.116L1.778,105.917L2.667,115.09L3.556,119.165L4.444,122.874L5.333,124.558L6.222,127.014L7.111,127.403L8,128.521L8.889,130.676L9.778,130.729L10.667,132.244L11.556,133.079L12.444,134.374L13.333,135.554L14.222,136.184L15.111,137.452L16,138.451L16.889,138.229L17.778,140.439L18.667,141.849L19.556,141.441L20.444,142.091L21.333,143.642L22.222,143.17L23.111,144.86L24,145.165L24.889,145.046L25.778,146.134L26.667,146.71L27.556,147.752L28.444,149.55L29.333,149.104L30.222,150.033L31.111,149.273L32,150.561L32.889,151.644L33.778,151.308L34.667,150.773L35.556,151.87L36.444,153.367L37.333,154.45L38.222,154.228L39.111,154.976L40,155.402L40.889,154.633L41.778,155.045L42.667,158.544L43.556,157.456L44.444,156.211L45.333,157.118L46.222,156.364L47.111,158.454L48,158.682L48.889,159.477L49.778,159.124L50.667,159.165L51.556,159.94L52.444,159.463L53.333,162.311L54.222,161.231L55.111,161.117L56,161.529L56.889,161.504L57.778,160.786L58.667,162.392L59.556,162.075L60.444,163.389L61.333,162.017L62.222,162.029L63.111,163.76L64,163.91L64.889,163.75L65.778,163.817L66.667,164.033L67.556,164.032L68.444,165.063L69.333,164.477L70.222,164.774L71.111,164.233L72,165.368L72.889,165.55L73.778,164.722L74.667,165.337L75.556,166.204L76.444,166.374L77.333,167.399L78.222,165.318L79.111,167.163L80,167.116L80.889,166.764L81.778,167.415L82.667,167.625L83.556,168.109L84.444,168.414L85.333,170.615L86.222,167.93L87.111,169.537L88,168.235L88.889,169.204L89.778,168.227L90.667,170.583L91.556,168.721L92.444,169.746L93.333,169.615L94.222,168.223L95.111,169.46L96,170.869L96.889,168.505L97.778,170.097L98.667,170.223L99.556,170.799L100.444,169.84L101.333,170.407L102.222,171.079L103.111,171.957L104,170.914L104.889,172.213L105.778,171.362L106.667,170.604L107.556,171.565L108.444,172.343L109.333,172.207L110.222,171.693L111.111,172.495L112,173.038L112.889,172.503L113.778,171.948L114.667,172.082L115.556,172.466L116.444,172.665L117.333,172.587L118.222,172.094L119.111,172.218L120,173.183L120.889,172.653L121.778,173.124L122.667,172.562L123.556,174.297L124.444,173.018L125.333,173.463L126.222,173.646L127.111,173.61L128,173.463L128.889,173.67L129.778,173.894L130.667,175.218L131.556,175.715L132.444,174.29L133.333,174.704L134.222,174.049L135.111,174.932L136,175.611L136.889,175.632L137.778,174.172L138.667,174.889L139.556,174.772L140.444,175.061L141.333,174.313L142.222,175.15L143.111,174.813L144,175.279L144.889,175.512L145.778,176.034L146.667,174.626L147.556,175.811L148.444,176.045L149.333,175.561L150.222,175.121L151.111,176.798L152,176.268L152.889,175.565L153.778,176.263L154.667,176.777L155.556,175.261L156.444,177.539L157.333,176.818L158.222,175.443L159.111,175.902L160,174.194L160.889,176.481L161.778,175.953L162.667,176.233L163.556,176.048L164.444,176.219L165.333,177.309L166.222,177.47L167.111,176.867L168,177.253L168.889,177.424L169.778,177.239L170.667,175.94L171.556,176.227L172.444,176.654L173.333,177.522L174.222,177.925L175.111,177.121L176,177.885L176.889,177.531L177.778,177.444L178.667,176.563L179.556,177.538L180.444,176.144L181.333,178.908L182.222,177.072L183.111,177.953L184,178.522L184.889,176.223L185.778,179.374L186.667,176.752L187.556,177.281L188.444,176.782L189.333,177.262L190.222,177.765L191.111,178.429L192,177.871L192.889,179.165L193.778,176.45L194.667,178.349L195.556,178.557L196.444,178.059L197.333,178.873L198.222,178.062L199.111,178.436L200,177.909L200.889,177.279L201.778,178.475L202.667,176.875L203.556,178.514L204.444,177.807L205.333,178.886L206.222,179.522L207.111,177.837L208,178.857L208.889,178.1L209.778,178.234L210.667,178.671L211.556,177.845L212.444,179.272L213.333,177.919L214.222,178.087L215.111,179.902L216,176.966L216.889,179.83L217.778,180.036L218.667,178.166L219.556,179.041L220.444,178.711L221.333,179.32L222.222,178.722L223.111,178.599L224,179.84L224.889,176.716L225.778,180.2L226.667,179.543L227.556,178.847L228.444,177.415L229.333,178.254L230.222,179.083L231.111,177.432L232,180.12L232.889,178.568L233.778,180.7L234.667,178.615L235.556,179.471L236.444,178.117L237.333,177.421L238.222,179.338L239.111,178.364L240,179.607L240.889,180.083L241.778,178.982L242.667,178.575L243.556,179.673L244.444,179.956L245.333,180.841L246.222,178.015L247.111,180.479L248,179.093L248.889,179.974L249.778,180.643L250.667,178.776L251.556,179.801L252.444,179.363L253.333,179.053L254.222,179.086L255.111,179.53L256,180.914L256.889,180.3L257.778,178.506L258.667,180.075L259.556,180.381L260.444,179.989L261.333,180.435L262.222,178.993L263.111,179.405L264,180.646L264.889,179.96L265.778,179.798L266.667,179.189L267.556,179.177L268.444,179.633L269.333,181.414L270.222,181.297L271.111,180.299L272,181.275L272.889,181.024L273.778,179.517L274.667,178.808L275.556,182.05L276.444,181.717L277.333,180.906L278.222,179.948L279.111,179.344L280,181.044L280.889,180.237L281.778,179.891L282.667,179.566L283.556,181.348L284.444,178.742L285.333,182.073L286.222,179.615L287.111,180.947L288,180.803L288.889,181.681L289.778,180.685L290.667,179.093L291.556,179.583L292.444,180.902L293.333,179.667L294.222,180.151L295.111,180.942L296,181.421L296.889,180.799L297.778,179.798L298.667,178.884L299.556,180.415L300.444,181.654L301.333,179.392L302.222,181.005L303.111,180.565L304,180.804L304.889,180.762L305.778,180.329L306.667,181.371L307.556,180.821L308.444,181.195L309.333,181.2L310.222,179.535L311.111,181.591L312,180.526L312.889,181.019L313.778,181.138L314.667,181.46L315.556,179.352L316.444,181.912L317.333,180.946L318.222,180.004L319.111,182.125L320,180.629L320.889,181.948L321.778,181.272L322.667,181.755L323.556,180.176L324.444,181.883L325.333,182.593L326.222,180.957L327.111,181.282L328,180.66L328.889,181.48L329.778,181.581L330.667,180.015L331.556,181.198L332.444,179.938L333.333,180.762L334.222,181.996L335.111,181.124L336,180.123L336.889,180.884L337.778,179.964L338.667,180.809L339.556,179.813L340.444,180.441L341.333,180.173L342.222,181.056L343.111,182.003L344,180.824L344.889,179.683L345.778,182.257L346.667,179.698L347.556,181.239L348.444,181.709L349.333,180.477L350.222,179.821L351.111,180.617L352,181.892L352.889,179.787L353.778,180.997L354.667,181.792L355.556,180.419L356.444,183.035L357.333,180.565" stroke="#4c78a8" stroke-width="2"/></g></g><path class="foreground" aria-hidden="true" d="" display="none"/></g></g></g></svg>